# xmcd
#
# Track frame offsets:
#	150
#	14780
#	25840
#	36606
#	48078
#	59401
#	71874
#	82290
#	93266
#	107653
#	118059
#	128774
#	140087
#	151400
#	162421
#	173422
#	183673
#	196671
#	207970
#	220629
#	233740
#	246338
#	256942
#	267318
#	278360
#
# Disc length: 3859 seconds
#
# Revision: 0
# Processed by: cddbd v1.4PL0 Copyright (c) Steve Scherf et al.
# Submitted via: dBpowerAMP V4.0
#
DISCID=6d0f1119
DTITLE=Patsy Cline - 25 All Time Greatest Recordings
DYEAR=1990
DGENRE=Country
TTITLE0=Church, A Courtroom And the Goodbye
TTITLE1=Hidin' Out
TTITLE2=I Cried All The Way To The Alter
TTITLE3=Dear God
TTITLE4=Walking After Midnight
TTITLE5=Poor Man's Roses
TTITLE6=Pick Me Up On Your Way Down
TTITLE7=Stranger In My Arms
TTITLE8=Then You'll Know
TTITLE9=Three Cigarettes In An Ashtray
TTITLE10=I Don't Wanta
TTITLE11=Hungry For Love
TTITLE12=That Wonderful Someone
TTITLE13=I Can't Forget
TTITLE14=Stop The World
TTITLE15=Walking Dream
TTITLE16=If I Could See The World
TTITLE17=Cry Not For Me
TTITLE18=Yes I Understand
TTITLE19=Life's Railway To Heaven
TTITLE20=Just A Closer Walk With Thee
TTITLE21=Lovesick Blues
TTITLE22=How Can I Face Tomorrow
TTITLE23=Crazy Dreams
TTITLE24=There He Goes
EXTD=
EXTT0=
EXTT1=
EXTT2=
EXTT3=
EXTT4=
EXTT5=
EXTT6=
EXTT7=
EXTT8=
EXTT9=
EXTT10=
EXTT11=
EXTT12=
EXTT13=
EXTT14=
EXTT15=
EXTT16=
EXTT17=
EXTT18=
EXTT19=
EXTT20=
EXTT21=
EXTT22=
EXTT23=
EXTT24=
PLAYORDER=
